{
	"asset":{
		"generator":"Khronos glTF Blender I/O v3.5.30",
		"version":"2.0"
	},
	"extensionsUsed":[
		"KHR_materials_emissive_strength"
	],
	"scene":0,
	"scenes":[
		{
			"name":"Scene",
			"nodes":[
				40
			]
		}
	],
	"nodes":[
		{
			"name":"Plane",
			"rotation":[
				0.7071068286895752,
				0,
				0,
				0.7071068286895752
			],
			"translation":[
				0,
				0.12447202205657959,
				0
			]
		},
		{
			"name":"Plane.001",
			"rotation":[
				0.7071068286895752,
				0,
				0,
				0.7071068286895752
			],
			"scale":[
				0.10587417334318161,
				0.10587417334318161,
				0.10587417334318161
			],
			"translation":[
				0.004785120487213135,
				1.659999966621399,
				-3.5299999713897705
			]
		},
		{
			"name":"Plane.002",
			"rotation":[
				0.5,
				-0.5,
				0.5,
				0.5
			],
			"scale":[
				0.25,
				0.25,
				0.25
			],
			"translation":[
				0,
				-0.125,
				0
			]
		},
		{
			"name":"Plane.003",
			"rotation":[
				0.5,
				-0.5,
				0.5,
				0.5
			],
			"scale":[
				0.026468543335795403,
				0.026468543335795403,
				0.026468543335795403
			],
			"translation":[
				-0.9350864887237549,
				1.4339760541915894,
				-1.9884192943572998
			]
		},
		{
			"name":"Plane.004",
			"rotation":[
				-0.7071068286895752,
				-0.7071068286895752,
				0,
				1.1520234011186403e-07
			],
			"translation":[
				0,
				0.19133329391479492,
				0
			]
		},
		{
			"name":"Plane.005",
			"rotation":[
				-0.7071068286895752,
				-0.7071068286895752,
				0,
				1.1520234011186403e-07
			],
			"scale":[
				0.10587417334318161,
				0.10587417334318161,
				0.10587417334318161
			],
			"translation":[
				-0.9342080354690552,
				1.8800837993621826,
				-2.2121548652648926
			]
		},
		{
			"name":"Plane.006",
			"rotation":[
				0.5,
				-0.5,
				0.5,
				0.5
			],
			"scale":[
				0.25,
				0.25,
				0.25
			],
			"translation":[
				0,
				-0.125,
				0
			]
		},
		{
			"name":"Plane.007",
			"rotation":[
				0.5,
				-0.5,
				0.5,
				0.5
			],
			"scale":[
				0.026468543335795403,
				0.026468543335795403,
				0.026468543335795403
			],
			"translation":[
				-0.9350864887237549,
				1.4339760541915894,
				-2.087350845336914
			]
		},
		{
			"name":"Plane.008",
			"rotation":[
				0.5,
				-0.5,
				0.5,
				0.5
			],
			"scale":[
				0.25,
				0.25,
				0.25
			],
			"translation":[
				0,
				0.25,
				0
			]
		},
		{
			"name":"Plane.009",
			"rotation":[
				0.5,
				-0.5,
				0.5,
				0.5
			],
			"scale":[
				0.026468543335795403,
				0.026468543335795403,
				0.026468543335795403
			],
			"translation":[
				-0.9350864887237549,
				1.4339760541915894,
				-2.186312437057495
			]
		},
		{
			"name":"Plane.010",
			"rotation":[
				0.7071068286895752,
				0,
				0,
				0.7071068286895752
			],
			"translation":[
				0,
				-0.7859455347061157,
				0
			]
		},
		{
			"name":"Plane.011",
			"rotation":[
				0.7071068286895752,
				0,
				0,
				0.7071068286895752
			],
			"scale":[
				0.10587417334318161,
				0.10587417334318161,
				0.10587417334318161
			],
			"translation":[
				0.3263275921344757,
				1.659999966621399,
				-3.5299999713897705
			]
		},
		{
			"name":"Plane.012",
			"rotation":[
				0.7071068286895752,
				0,
				0,
				0.7071068286895752
			],
			"scale":[
				0.25,
				0.25,
				0.25
			],
			"translation":[
				0,
				0.25,
				0
			]
		},
		{
			"name":"Plane.013",
			"rotation":[
				0.7071068286895752,
				0,
				0,
				0.7071068286895752
			],
			"scale":[
				0.026468543335795403,
				0.026468543335795403,
				0.026468543335795403
			],
			"translation":[
				-0.511652410030365,
				1.6318578720092773,
				-3.5296106338500977
			]
		},
		{
			"name":"Plane.014",
			"rotation":[
				0.7071068286895752,
				0,
				0,
				0.7071068286895752
			],
			"scale":[
				0.25,
				0.25,
				0.25
			],
			"translation":[
				0,
				0.125,
				0
			]
		},
		{
			"name":"Plane.015",
			"rotation":[
				0.7071068286895752,
				0,
				0,
				0.7071068286895752
			],
			"scale":[
				0.026468543335795403,
				0.026468543335795403,
				0.026468543335795403
			],
			"translation":[
				-0.3241804838180542,
				1.6318578720092773,
				-3.5296106338500977
			]
		},
		{
			"name":"Plane.016",
			"rotation":[
				0.5,
				-0.5,
				0.5,
				0.5
			],
			"scale":[
				0.25,
				0.25,
				0.25
			],
			"translation":[
				0,
				0.25,
				0
			]
		},
		{
			"name":"Plane.017",
			"rotation":[
				0.5,
				-0.5,
				0.5,
				0.5
			],
			"scale":[
				0.026468543335795403,
				0.026468543335795403,
				0.026468543335795403
			],
			"translation":[
				-0.9350864887237549,
				0.9900444746017456,
				-0.4802442193031311
			]
		},
		{
			"name":"Plane.018",
			"rotation":[
				0.7071068286895752,
				0,
				0,
				0.7071068286895752
			]
		},
		{
			"name":"Plane.019",
			"rotation":[
				0.7071068286895752,
				0,
				0,
				0.7071068286895752
			],
			"scale":[
				0.10587417334318161,
				0.10587417334318161,
				0.10587417334318161
			],
			"translation":[
				0.6554610729217529,
				1.659999966621399,
				-3.5299999713897705
			]
		},
		{
			"name":"Plane.020",
			"rotation":[
				0.5,
				-0.5,
				0.5,
				0.5
			]
		},
		{
			"name":"Plane.021",
			"rotation":[
				0.5,
				-0.5,
				0.5,
				0.5
			],
			"scale":[
				0.10587417334318161,
				0.10587417334318161,
				0.10587417334318161
			]
		},
		{
			"name":"Plane.022",
			"rotation":[
				0.5,
				-0.5,
				0.5,
				0.5
			],
			"scale":[
				0.25,
				0.25,
				0.25
			],
			"translation":[
				0.5935340523719788,
				0,
				0
			]
		},
		{
			"name":"Plane.023",
			"rotation":[
				0.5,
				-0.5,
				0.5,
				0.5
			],
			"scale":[
				0.026468543335795403,
				0.026468543335795403,
				0.026468543335795403
			],
			"translation":[
				-0.9349778294563293,
				0.989987850189209,
				-0.3932299017906189
			]
		},
		{
			"name":"Plane.024",
			"rotation":[
				0.5,
				-0.5,
				0.5,
				0.5
			],
			"scale":[
				0.25,
				0.25,
				0.25
			],
			"translation":[
				0.5935340523719788,
				0,
				0.08708366006612778
			]
		},
		{
			"name":"Plane.025",
			"rotation":[
				0.5,
				-0.5,
				0.5,
				0.5
			],
			"scale":[
				0.026468543335795403,
				0.026468543335795403,
				0.026468543335795403
			],
			"translation":[
				-0.9349778294563293,
				0.989987850189209,
				-0.3061462342739105
			]
		},
		{
			"name":"Plane.026",
			"rotation":[
				0.5,
				-0.5,
				0.5,
				0.5
			],
			"scale":[
				0.25,
				0.25,
				0.25
			],
			"translation":[
				0,
				-0.0820157527923584,
				0
			]
		},
		{
			"name":"Plane.027",
			"rotation":[
				0.5,
				-0.5,
				0.5,
				0.5
			],
			"scale":[
				0.026468543335795403,
				0.026468543335795403,
				0.026468543335795403
			],
			"translation":[
				-0.9349778294563293,
				0.989987850189209,
				-0.2081771194934845
			]
		},
		{
			"name":"Plane.028",
			"rotation":[
				0.5,
				-0.5,
				0.5,
				0.5
			],
			"scale":[
				0.25,
				0.25,
				0.25
			],
			"translation":[
				0,
				-0.125,
				0.096089206635952
			]
		},
		{
			"name":"Plane.029",
			"rotation":[
				0.5,
				-0.5,
				0.5,
				0.5
			],
			"scale":[
				0.026468543335795403,
				0.026468543335795403,
				0.026468543335795403
			],
			"translation":[
				-0.9349778294563293,
				0.989987850189209,
				-0.1120879128575325
			]
		},
		{
			"name":"Plane.030",
			"rotation":[
				0.5,
				-0.5,
				0.5,
				0.5
			],
			"scale":[
				0.25,
				0.25,
				0.25
			],
			"translation":[
				0,
				-0.125,
				0.1931941956281662
			]
		},
		{
			"name":"Plane.031",
			"rotation":[
				0.5,
				-0.5,
				0.5,
				0.5
			],
			"scale":[
				0.026468543335795403,
				0.026468543335795403,
				0.026468543335795403
			],
			"translation":[
				-0.9349778294563293,
				0.989987850189209,
				-0.014982923865318298
			]
		},
		{
			"name":"Plane.032",
			"rotation":[
				0.5,
				-0.5,
				0.5,
				0.5
			],
			"scale":[
				0.25,
				0.25,
				0.25
			],
			"translation":[
				0,
				0.125,
				0.29629069566726685
			]
		},
		{
			"name":"Plane.033",
			"rotation":[
				0.5,
				-0.5,
				0.5,
				0.5
			],
			"scale":[
				0.026468543335795403,
				0.026468543335795403,
				0.026468543335795403
			],
			"translation":[
				-0.9349778294563293,
				0.989987850189209,
				0.08811356872320175
			]
		},
		{
			"name":"Plane.034",
			"rotation":[
				0.5,
				-0.5,
				0.5,
				0.5
			],
			"scale":[
				0.25,
				0.25,
				0.25
			],
			"translation":[
				0,
				-0.125,
				0.3926404118537903
			]
		},
		{
			"name":"Plane.035",
			"rotation":[
				0.5,
				-0.5,
				0.5,
				0.5
			],
			"scale":[
				0.026468543335795403,
				0.026468543335795403,
				0.026468543335795403
			],
			"translation":[
				-0.9349778294563293,
				0.989987850189209,
				0.1844632923603058
			]
		},
		{
			"name":"Plane.036",
			"rotation":[
				0.5,
				-0.5,
				0.5,
				0.5
			],
			"scale":[
				0.25,
				0.25,
				0.25
			],
			"translation":[
				0,
				0.125,
				0.48573482036590576
			]
		},
		{
			"name":"Plane.037",
			"rotation":[
				0.5,
				-0.5,
				0.5,
				0.5
			],
			"scale":[
				0.026468543335795403,
				0.026468543335795403,
				0.026468543335795403
			],
			"translation":[
				-0.9349778294563293,
				0.989987850189209,
				0.27755770087242126
			]
		},
		{
			"name":"Plane.038",
			"rotation":[
				0,
				0,
				0.7071068286895752,
				0.7071068286895752
			],
			"translation":[
				0,
				0,
				-0.11353912949562073
			]
		},
		{
			"name":"Plane.039",
			"rotation":[
				0,
				0,
				0.7071068286895752,
				0.7071068286895752
			],
			"scale":[
				0.10587417334318161,
				0.10587417334318161,
				0.10587417334318161
			]
		},
		{
			"children":[
				0,
				1,
				2,
				3,
				4,
				5,
				6,
				7,
				8,
				9,
				10,
				11,
				12,
				13,
				14,
				15,
				16,
				17,
				18,
				19,
				20,
				21,
				22,
				23,
				24,
				25,
				26,
				27,
				28,
				29,
				30,
				31,
				32,
				33,
				34,
				35,
				36,
				37,
				38,
				39
			],
			"mesh":0,
			"name":"f"
		}
	],
	"materials":[
		{
			"doubleSided":true,
			"name":"Material.009",
			"pbrMetallicRoughness":{
				"metallicFactor":0,
				"roughnessFactor":0
			}
		},
		{
			"doubleSided":true,
			"name":"glass",
			"pbrMetallicRoughness":{
				"baseColorFactor":[
					0,
					0,
					0,
					1
				],
				"metallicFactor":0,
				"roughnessFactor":0
			}
		},
		{
			"doubleSided":true,
			"emissiveFactor":[
				1,
				0.6807416081428528,
				0.15194171667099
			],
			"extensions":{
				"KHR_materials_emissive_strength":{
					"emissiveStrength":10
				}
			},
			"name":"Material.001",
			"pbrMetallicRoughness":{
				"baseColorFactor":[
					0,
					0,
					0,
					1
				]
			}
		},
		{
			"doubleSided":true,
			"emissiveFactor":[
				1,
				0.014461939223110676,
				0
			],
			"extensions":{
				"KHR_materials_emissive_strength":{
					"emissiveStrength":10
				}
			},
			"name":"Material.002",
			"pbrMetallicRoughness":{
				"baseColorFactor":[
					0,
					0,
					0,
					1
				]
			}
		},
		{
			"doubleSided":true,
			"name":"Material.003",
			"pbrMetallicRoughness":{
				"baseColorFactor":[
					0,
					0,
					0,
					1
				],
				"metallicFactor":0,
				"roughnessFactor":0.8136363625526428
			}
		},
		{
			"doubleSided":true,
			"name":"Material.004",
			"pbrMetallicRoughness":{
				"baseColorFactor":[
					0.27803581953048706,
					0.27803581953048706,
					0.27803581953048706,
					1
				],
				"metallicFactor":0,
				"roughnessFactor":0.5
			}
		}
	],
	"meshes":[
		{
			"name":"Cube",
			"primitives":[
				{
					"attributes":{
						"POSITION":0,
						"TEXCOORD_0":1,
						"NORMAL":2
					},
					"indices":3,
					"material":0
				},
				{
					"attributes":{
						"POSITION":4,
						"TEXCOORD_0":5,
						"NORMAL":6
					},
					"indices":7,
					"material":1
				},
				{
					"attributes":{
						"POSITION":8,
						"TEXCOORD_0":9,
						"NORMAL":10
					},
					"indices":11,
					"material":2
				},
				{
					"attributes":{
						"POSITION":12,
						"TEXCOORD_0":13,
						"NORMAL":14
					},
					"indices":15,
					"material":3
				},
				{
					"attributes":{
						"POSITION":16,
						"TEXCOORD_0":17,
						"NORMAL":18
					},
					"indices":19,
					"material":4
				},
				{
					"attributes":{
						"POSITION":20,
						"TEXCOORD_0":21,
						"NORMAL":22
					},
					"indices":23
				},
				{
					"attributes":{
						"POSITION":24,
						"TEXCOORD_0":25,
						"NORMAL":26
					},
					"indices":27,
					"material":5
				}
			]
		}
	],
	"accessors":[
		{
			"bufferView":0,
			"componentType":5126,
			"count":746,
			"max":[
				1.0000001192092896,
				1.3086981773376465,
				0.722198486328125
			],
			"min":[
				-1.0000001192092896,
				-7.338248764199307e-08,
				-3.886434555053711
			],
			"type":"VEC3"
		},
		{
			"bufferView":1,
			"componentType":5126,
			"count":746,
			"type":"VEC2"
		},
		{
			"bufferView":2,
			"componentType":5126,
			"count":746,
			"type":"VEC3"
		},
		{
			"bufferView":3,
			"componentType":5123,
			"count":2688,
			"type":"SCALAR"
		},
		{
			"bufferView":4,
			"componentType":5126,
			"count":45,
			"max":[
				0.9644416570663452,
				1.2735730409622192,
				-0.7603839635848999
			],
			"min":[
				-0.9644416570663452,
				0.7594202756881714,
				-3.302523612976074
			],
			"type":"VEC3"
		},
		{
			"bufferView":5,
			"componentType":5126,
			"count":45,
			"type":"VEC2"
		},
		{
			"bufferView":6,
			"componentType":5126,
			"count":45,
			"type":"VEC3"
		},
		{
			"bufferView":7,
			"componentType":5123,
			"count":120,
			"type":"SCALAR"
		},
		{
			"bufferView":8,
			"componentType":5126,
			"count":40,
			"max":[
				0.8938568830490112,
				0.6469932198524475,
				0.8140496611595154
			],
			"min":[
				-0.8938568830490112,
				0.02396807260811329,
				0.7164880633354187
			],
			"type":"VEC3"
		},
		{
			"bufferView":9,
			"componentType":5126,
			"count":40,
			"type":"VEC2"
		},
		{
			"bufferView":10,
			"componentType":5126,
			"count":40,
			"type":"VEC3"
		},
		{
			"bufferView":11,
			"componentType":5123,
			"count":156,
			"type":"SCALAR"
		},
		{
			"bufferView":12,
			"componentType":5126,
			"count":76,
			"max":[
				1.0000001192092896,
				0.6687293648719788,
				0.7208268642425537
			],
			"min":[
				-1.0000001192092896,
				0.2581425607204437,
				-3.88643479347229
			],
			"type":"VEC3"
		},
		{
			"bufferView":13,
			"componentType":5126,
			"count":76,
			"type":"VEC2"
		},
		{
			"bufferView":14,
			"componentType":5126,
			"count":76,
			"type":"VEC3"
		},
		{
			"bufferView":15,
			"componentType":5123,
			"count":240,
			"type":"SCALAR"
		},
		{
			"bufferView":16,
			"componentType":5126,
			"count":1918,
			"max":[
				1.0424517393112183,
				0.33000004291534424,
				0.236508309841156
			],
			"min":[
				-1.0424517393112183,
				-0.33000004291534424,
				-3.432258367538452
			],
			"type":"VEC3"
		},
		{
			"bufferView":17,
			"componentType":5126,
			"count":1918,
			"type":"VEC2"
		},
		{
			"bufferView":18,
			"componentType":5126,
			"count":1918,
			"type":"VEC3"
		},
		{
			"bufferView":19,
			"componentType":5123,
			"count":5688,
			"type":"SCALAR"
		},
		{
			"bufferView":20,
			"componentType":5126,
			"count":224,
			"max":[
				1.0169893503189087,
				0.2481941133737564,
				0.14904338121414185
			],
			"min":[
				-1.0169893503189087,
				-0.2481941133737564,
				-3.350452423095703
			],
			"type":"VEC3"
		},
		{
			"bufferView":21,
			"componentType":5126,
			"count":224,
			"type":"VEC2"
		},
		{
			"bufferView":22,
			"componentType":5126,
			"count":224,
			"type":"VEC3"
		},
		{
			"bufferView":23,
			"componentType":5123,
			"count":984,
			"type":"SCALAR"
		},
		{
			"bufferView":24,
			"componentType":5126,
			"count":141,
			"max":[
				1.05911386013031,
				0.34999996423721313,
				0.8140497207641602
			],
			"min":[
				-1.05911386013031,
				-7.338248764199307e-08,
				-3.886434316635132
			],
			"type":"VEC3"
		},
		{
			"bufferView":25,
			"componentType":5126,
			"count":141,
			"type":"VEC2"
		},
		{
			"bufferView":26,
			"componentType":5126,
			"count":141,
			"type":"VEC3"
		},
		{
			"bufferView":27,
			"componentType":5123,
			"count":432,
			"type":"SCALAR"
		}
	],
	"bufferViews":[
		{
			"buffer":0,
			"byteLength":8952,
			"byteOffset":0,
			"target":34962
		},
		{
			"buffer":0,
			"byteLength":5968,
			"byteOffset":8952,
			"target":34962
		},
		{
			"buffer":0,
			"byteLength":8952,
			"byteOffset":14920,
			"target":34962
		},
		{
			"buffer":0,
			"byteLength":5376,
			"byteOffset":23872,
			"target":34963
		},
		{
			"buffer":0,
			"byteLength":540,
			"byteOffset":29248,
			"target":34962
		},
		{
			"buffer":0,
			"byteLength":360,
			"byteOffset":29788,
			"target":34962
		},
		{
			"buffer":0,
			"byteLength":540,
			"byteOffset":30148,
			"target":34962
		},
		{
			"buffer":0,
			"byteLength":240,
			"byteOffset":30688,
			"target":34963
		},
		{
			"buffer":0,
			"byteLength":480,
			"byteOffset":30928,
			"target":34962
		},
		{
			"buffer":0,
			"byteLength":320,
			"byteOffset":31408,
			"target":34962
		},
		{
			"buffer":0,
			"byteLength":480,
			"byteOffset":31728,
			"target":34962
		},
		{
			"buffer":0,
			"byteLength":312,
			"byteOffset":32208,
			"target":34963
		},
		{
			"buffer":0,
			"byteLength":912,
			"byteOffset":32520,
			"target":34962
		},
		{
			"buffer":0,
			"byteLength":608,
			"byteOffset":33432,
			"target":34962
		},
		{
			"buffer":0,
			"byteLength":912,
			"byteOffset":34040,
			"target":34962
		},
		{
			"buffer":0,
			"byteLength":480,
			"byteOffset":34952,
			"target":34963
		},
		{
			"buffer":0,
			"byteLength":23016,
			"byteOffset":35432,
			"target":34962
		},
		{
			"buffer":0,
			"byteLength":15344,
			"byteOffset":58448,
			"target":34962
		},
		{
			"buffer":0,
			"byteLength":23016,
			"byteOffset":73792,
			"target":34962
		},
		{
			"buffer":0,
			"byteLength":11376,
			"byteOffset":96808,
			"target":34963
		},
		{
			"buffer":0,
			"byteLength":2688,
			"byteOffset":108184,
			"target":34962
		},
		{
			"buffer":0,
			"byteLength":1792,
			"byteOffset":110872,
			"target":34962
		},
		{
			"buffer":0,
			"byteLength":2688,
			"byteOffset":112664,
			"target":34962
		},
		{
			"buffer":0,
			"byteLength":1968,
			"byteOffset":115352,
			"target":34963
		},
		{
			"buffer":0,
			"byteLength":1692,
			"byteOffset":117320,
			"target":34962
		},
		{
			"buffer":0,
			"byteLength":1128,
			"byteOffset":119012,
			"target":34962
		},
		{
			"buffer":0,
			"byteLength":1692,
			"byteOffset":120140,
			"target":34962
		},
		{
			"buffer":0,
			"byteLength":864,
			"byteOffset":121832,
			"target":34963
		}
	],
	"buffers":[
		{
			"byteLength":122696,
			"uri":"data:application/octet-stream;base64,"
		}
	]
}
