{
	"asset":{
		"generator":"Khronos glTF Blender I/O v3.5.30",
		"version":"2.0"
	},
	"extensionsUsed":[
		"KHR_materials_transmission",
		"KHR_materials_ior"
	],
	"scene":0,
	"scenes":[
		{
			"name":"Scene",
			"nodes":[
				0
			]
		}
	],
	"nodes":[
		{
			"mesh":0,
			"name":"Cube",
			"translation":[
				0,
				-0.07875604927539825,
				-0.01575120911002159
			]
		}
	],
	"materials":[
		{
			"doubleSided":true,
			"name":"Bulding Material",
			"pbrMetallicRoughness":{
				"baseColorFactor":[
					0.8000000715255737,
					0.5441023111343384,
					0.23254196345806122,
					1
				],
				"metallicFactor":0,
				"roughnessFactor":0.6192660331726074
			}
		},
		{
			"doubleSided":true,
			"name":"window sill ",
			"pbrMetallicRoughness":{
				"baseColorFactor":[
					0.5372089743614197,
					0.5372089743614197,
					0.5372089743614197,
					1
				],
				"metallicFactor":0,
				"roughnessFactor":0.5
			}
		},
		{
			"doubleSided":true,
			"extensions":{
				"KHR_materials_transmission":{
					"transmissionFactor":1
				},
				"KHR_materials_ior":{
					"ior":1.4500000476837158
				}
			},
			"name":"Window",
			"pbrMetallicRoughness":{
				"baseColorFactor":[
					0.23176783323287964,
					0.23176783323287964,
					0.23176783323287964,
					1
				],
				"metallicFactor":0,
				"roughnessFactor":0.08256880939006805
			}
		},
		{
			"doubleSided":true,
			"name":"Concrete",
			"pbrMetallicRoughness":{
				"baseColorFactor":[
					0.041289929300546646,
					0.041289929300546646,
					0.041289929300546646,
					1
				],
				"metallicFactor":0,
				"roughnessFactor":0.6009174585342407
			}
		},
		{
			"doubleSided":true,
			"name":"Boxes ",
			"pbrMetallicRoughness":{
				"baseColorFactor":[
					0.21651624143123627,
					0.21651624143123627,
					0.21651624143123627,
					1
				],
				"metallicFactor":0,
				"roughnessFactor":0.6009174585342407
			}
		},
		{
			"doubleSided":true,
			"name":"wood",
			"pbrMetallicRoughness":{
				"baseColorFactor":[
					0.0860000029206276,
					0.04266975820064545,
					0.021328002214431763,
					1
				],
				"metallicFactor":0,
				"roughnessFactor":0.5
			}
		},
		{
			"doubleSided":true,
			"name":"door",
			"pbrMetallicRoughness":{
				"baseColorFactor":[
					0.29294857382774353,
					0.15917862951755524,
					0.07163193821907043,
					1
				],
				"metallicFactor":0,
				"roughnessFactor":0.5
			}
		},
		{
			"doubleSided":true,
			"name":"Doornob",
			"pbrMetallicRoughness":{
				"baseColorFactor":[
					0.0028570701833814383,
					0.024723393842577934,
					0.03411024808883667,
					1
				],
				"metallicFactor":0,
				"roughnessFactor":0.4357798099517822
			}
		}
	],
	"meshes":[
		{
			"name":"Cube.001",
			"primitives":[
				{
					"attributes":{
						"POSITION":0,
						"TEXCOORD_0":1,
						"NORMAL":2
					},
					"indices":3,
					"material":0
				},
				{
					"attributes":{
						"POSITION":4,
						"TEXCOORD_0":5,
						"NORMAL":6
					},
					"indices":7,
					"material":1
				},
				{
					"attributes":{
						"POSITION":8,
						"TEXCOORD_0":9,
						"NORMAL":10
					},
					"indices":11,
					"material":2
				},
				{
					"attributes":{
						"POSITION":12,
						"TEXCOORD_0":13,
						"NORMAL":14
					},
					"indices":15,
					"material":3
				},
				{
					"attributes":{
						"POSITION":16,
						"TEXCOORD_0":17,
						"NORMAL":18
					},
					"indices":19,
					"material":4
				},
				{
					"attributes":{
						"POSITION":20,
						"TEXCOORD_0":21,
						"NORMAL":22
					},
					"indices":23,
					"material":5
				},
				{
					"attributes":{
						"POSITION":24,
						"TEXCOORD_0":25,
						"NORMAL":26
					},
					"indices":27,
					"material":6
				},
				{
					"attributes":{
						"POSITION":28,
						"TEXCOORD_0":29,
						"NORMAL":30
					},
					"indices":31,
					"material":7
				}
			]
		}
	],
	"accessors":[
		{
			"bufferView":0,
			"componentType":5126,
			"count":94,
			"max":[
				4.27211332321167,
				13.399917602539062,
				4.682616710662842
			],
			"min":[
				-4.183952808380127,
				0.4477081298828125,
				-3.7734503746032715
			],
			"type":"VEC3"
		},
		{
			"bufferView":1,
			"componentType":5126,
			"count":94,
			"type":"VEC2"
		},
		{
			"bufferView":2,
			"componentType":5126,
			"count":94,
			"type":"VEC3"
		},
		{
			"bufferView":3,
			"componentType":5123,
			"count":210,
			"type":"SCALAR"
		},
		{
			"bufferView":4,
			"componentType":5126,
			"count":696,
			"max":[
				4.1410298347473145,
				13.008745193481445,
				4.688565254211426
			],
			"min":[
				-4.038750171661377,
				2.13657808303833,
				-2.7673254013061523
			],
			"type":"VEC3"
		},
		{
			"bufferView":5,
			"componentType":5126,
			"count":696,
			"type":"VEC2"
		},
		{
			"bufferView":6,
			"componentType":5126,
			"count":696,
			"type":"VEC3"
		},
		{
			"bufferView":7,
			"componentType":5123,
			"count":1380,
			"type":"SCALAR"
		},
		{
			"bufferView":8,
			"componentType":5126,
			"count":52,
			"max":[
				4.074287414550781,
				12.956294059753418,
				4.60366153717041
			],
			"min":[
				-3.984118938446045,
				2.13657808303833,
				-2.7673254013061523
			],
			"type":"VEC3"
		},
		{
			"bufferView":9,
			"componentType":5126,
			"count":52,
			"type":"VEC2"
		},
		{
			"bufferView":10,
			"componentType":5126,
			"count":52,
			"type":"VEC3"
		},
		{
			"bufferView":11,
			"componentType":5123,
			"count":78,
			"type":"SCALAR"
		},
		{
			"bufferView":12,
			"componentType":5126,
			"count":208,
			"max":[
				4.3873209953308105,
				13.765625953674316,
				4.797824382781982
			],
			"min":[
				-4.299160480499268,
				0.0824432373046875,
				-3.888658046722412
			],
			"type":"VEC3"
		},
		{
			"bufferView":13,
			"componentType":5126,
			"count":208,
			"type":"VEC2"
		},
		{
			"bufferView":14,
			"componentType":5126,
			"count":208,
			"type":"VEC3"
		},
		{
			"bufferView":15,
			"componentType":5123,
			"count":450,
			"type":"SCALAR"
		},
		{
			"bufferView":16,
			"componentType":5126,
			"count":96,
			"max":[
				3.50459885597229,
				13.753694534301758,
				3.8578944206237793
			],
			"min":[
				-3.7257556915283203,
				13.420262336730957,
				-2.636699676513672
			],
			"type":"VEC3"
		},
		{
			"bufferView":17,
			"componentType":5126,
			"count":96,
			"type":"VEC2"
		},
		{
			"bufferView":18,
			"componentType":5126,
			"count":96,
			"type":"VEC3"
		},
		{
			"bufferView":19,
			"componentType":5123,
			"count":156,
			"type":"SCALAR"
		},
		{
			"bufferView":20,
			"componentType":5126,
			"count":48,
			"max":[
				4.1053900718688965,
				5.353105545043945,
				4.019592761993408
			],
			"min":[
				3.6583714485168457,
				0.2497720718383789,
				1.146121859550476
			],
			"type":"VEC3"
		},
		{
			"bufferView":21,
			"componentType":5126,
			"count":48,
			"type":"VEC2"
		},
		{
			"bufferView":22,
			"componentType":5126,
			"count":48,
			"type":"VEC3"
		},
		{
			"bufferView":23,
			"componentType":5123,
			"count":96,
			"type":"SCALAR"
		},
		{
			"bufferView":24,
			"componentType":5126,
			"count":4,
			"max":[
				3.7306997776031494,
				5.155169486999512,
				3.8467369079589844
			],
			"min":[
				3.7306997776031494,
				0.4477081298828125,
				1.3189778327941895
			],
			"type":"VEC3"
		},
		{
			"bufferView":25,
			"componentType":5126,
			"count":4,
			"type":"VEC2"
		},
		{
			"bufferView":26,
			"componentType":5126,
			"count":4,
			"type":"VEC3"
		},
		{
			"bufferView":27,
			"componentType":5123,
			"count":6,
			"type":"SCALAR"
		},
		{
			"bufferView":28,
			"componentType":5126,
			"count":162,
			"max":[
				4.086936950683594,
				2.935163736343384,
				1.7847999334335327
			],
			"min":[
				3.811758279800415,
				2.693406343460083,
				1.540601134300232
			],
			"type":"VEC3"
		},
		{
			"bufferView":29,
			"componentType":5126,
			"count":162,
			"type":"VEC2"
		},
		{
			"bufferView":30,
			"componentType":5126,
			"count":162,
			"type":"VEC3"
		},
		{
			"bufferView":31,
			"componentType":5123,
			"count":276,
			"type":"SCALAR"
		}
	],
	"bufferViews":[
		{
			"buffer":0,
			"byteLength":1128,
			"byteOffset":0,
			"target":34962
		},
		{
			"buffer":0,
			"byteLength":752,
			"byteOffset":1128,
			"target":34962
		},
		{
			"buffer":0,
			"byteLength":1128,
			"byteOffset":1880,
			"target":34962
		},
		{
			"buffer":0,
			"byteLength":420,
			"byteOffset":3008,
			"target":34963
		},
		{
			"buffer":0,
			"byteLength":8352,
			"byteOffset":3428,
			"target":34962
		},
		{
			"buffer":0,
			"byteLength":5568,
			"byteOffset":11780,
			"target":34962
		},
		{
			"buffer":0,
			"byteLength":8352,
			"byteOffset":17348,
			"target":34962
		},
		{
			"buffer":0,
			"byteLength":2760,
			"byteOffset":25700,
			"target":34963
		},
		{
			"buffer":0,
			"byteLength":624,
			"byteOffset":28460,
			"target":34962
		},
		{
			"buffer":0,
			"byteLength":416,
			"byteOffset":29084,
			"target":34962
		},
		{
			"buffer":0,
			"byteLength":624,
			"byteOffset":29500,
			"target":34962
		},
		{
			"buffer":0,
			"byteLength":156,
			"byteOffset":30124,
			"target":34963
		},
		{
			"buffer":0,
			"byteLength":2496,
			"byteOffset":30280,
			"target":34962
		},
		{
			"buffer":0,
			"byteLength":1664,
			"byteOffset":32776,
			"target":34962
		},
		{
			"buffer":0,
			"byteLength":2496,
			"byteOffset":34440,
			"target":34962
		},
		{
			"buffer":0,
			"byteLength":900,
			"byteOffset":36936,
			"target":34963
		},
		{
			"buffer":0,
			"byteLength":1152,
			"byteOffset":37836,
			"target":34962
		},
		{
			"buffer":0,
			"byteLength":768,
			"byteOffset":38988,
			"target":34962
		},
		{
			"buffer":0,
			"byteLength":1152,
			"byteOffset":39756,
			"target":34962
		},
		{
			"buffer":0,
			"byteLength":312,
			"byteOffset":40908,
			"target":34963
		},
		{
			"buffer":0,
			"byteLength":576,
			"byteOffset":41220,
			"target":34962
		},
		{
			"buffer":0,
			"byteLength":384,
			"byteOffset":41796,
			"target":34962
		},
		{
			"buffer":0,
			"byteLength":576,
			"byteOffset":42180,
			"target":34962
		},
		{
			"buffer":0,
			"byteLength":192,
			"byteOffset":42756,
			"target":34963
		},
		{
			"buffer":0,
			"byteLength":48,
			"byteOffset":42948,
			"target":34962
		},
		{
			"buffer":0,
			"byteLength":32,
			"byteOffset":42996,
			"target":34962
		},
		{
			"buffer":0,
			"byteLength":48,
			"byteOffset":43028,
			"target":34962
		},
		{
			"buffer":0,
			"byteLength":12,
			"byteOffset":43076,
			"target":34963
		},
		{
			"buffer":0,
			"byteLength":1944,
			"byteOffset":43088,
			"target":34962
		},
		{
			"buffer":0,
			"byteLength":1296,
			"byteOffset":45032,
			"target":34962
		},
		{
			"buffer":0,
			"byteLength":1944,
			"byteOffset":46328,
			"target":34962
		},
		{
			"buffer":0,
			"byteLength":552,
			"byteOffset":48272,
			"target":34963
		}
	],
	"buffers":[
		{
			"byteLength":48824,
			"uri":"data:application/octet-stream;base64,"
		}
	]
}
