{
  "accessors": [
    {
      "bufferView": 2,
      "componentType": 5126,
      "count": 15583,
      "max": [
        0.689573347568512,
        0.8195856809616089,
        1.0758082866668701
      ],
      "min": [
        -0.689573347568512,
        -1.4579062461853027,
        0.16469109058380127
      ],
      "type": "VEC3"
    },
    {
      "bufferView": 2,
      "byteOffset": 186996,
      "componentType": 5126,
      "count": 15583,
      "max": [
        1.0,
        1.0,
        1.0
      ],
      "min": [
        -1.0,
        -1.0,
        -1.0
      ],
      "type": "VEC3"
    },
    {
      "bufferView": 1,
      "componentType": 5126,
      "count": 15583,
      "max": [
        0.8629121780395508,
        0.9110821485519409
      ],
      "min": [
        0.030034512281417847,
        0.03610328584909439
      ],
      "type": "VEC2"
    },
    {
      "bufferView": 0,
      "componentType": 5125,
      "count": 29928,
      "type": "SCALAR"
    },
    {
      "bufferView": 2,
      "byteOffset": 373992,
      "componentType": 5126,
      "count": 22940,
      "max": [
        0.5231829881668091,
        0.5082091689109802,
        0.4347861409187317
      ],
      "min": [
        -0.5231829881668091,
        -1.2083909511566162,
        0.058401089161634445
      ],
      "type": "VEC3"
    },
    {
      "bufferView": 2,
      "byteOffset": 649272,
      "componentType": 5126,
      "count": 22940,
      "max": [
        1.0,
        1.0,
        1.0
      ],
      "min": [
        -1.0,
        -1.0,
        -1.0
      ],
      "type": "VEC3"
    },
    {
      "bufferView": 3,
      "componentType": 5126,
      "count": 22940,
      "max": [
        1.0,
        1.0,
        0.9991166591644287,
        1.0
      ],
      "min": [
        -1.0,
        -0.999889075756073,
        -0.9999451041221619,
        -1.0
      ],
      "type": "VEC4"
    },
    {
      "bufferView": 1,
      "byteOffset": 124664,
      "componentType": 5126,
      "count": 22940,
      "max": [
        0.9759979844093323,
        0.9990715980529785
      ],
      "min": [
        0.0009283879771828651,
        0.0009279847145080566
      ],
      "type": "VEC2"
    },
    {
      "bufferView": 1,
      "byteOffset": 308184,
      "componentType": 5126,
      "count": 22940,
      "max": [
        0.9759979844093323,
        0.9990715980529785
      ],
      "min": [
        0.0009283879771828651,
        0.0009279847145080566
      ],
      "type": "VEC2"
    },
    {
      "bufferView": 0,
      "byteOffset": 119712,
      "componentType": 5125,
      "count": 45384,
      "type": "SCALAR"
    },
    {
      "bufferView": 2,
      "byteOffset": 924552,
      "componentType": 5126,
      "count": 32,
      "max": [
        1.0,
        1.0,
        0.0
      ],
      "min": [
        -1.0,
        -1.0,
        0.0
      ],
      "type": "VEC3"
    },
    {
      "bufferView": 2,
      "byteOffset": 924936,
      "componentType": 5126,
      "count": 32,
      "max": [
        0.0,
        0.0,
        1.0
      ],
      "min": [
        0.0,
        0.0,
        1.0
      ],
      "type": "VEC3"
    },
    {
      "bufferView": 3,
      "byteOffset": 367040,
      "componentType": 5126,
      "count": 32,
      "max": [
        1.0,
        0.0,
        0.0,
        1.0
      ],
      "min": [
        1.0,
        0.0,
        0.0,
        1.0
      ],
      "type": "VEC4"
    },
    {
      "bufferView": 1,
      "byteOffset": 491704,
      "componentType": 5126,
      "count": 32,
      "max": [
        0.0,
        0.0
      ],
      "min": [
        0.0,
        0.0
      ],
      "type": "VEC2"
    },
    {
      "bufferView": 1,
      "byteOffset": 491960,
      "componentType": 5126,
      "count": 32,
      "max": [
        0.0,
        0.0
      ],
      "min": [
        0.0,
        0.0
      ],
      "type": "VEC2"
    },
    {
      "bufferView": 0,
      "byteOffset": 301248,
      "componentType": 5125,
      "count": 90,
      "type": "SCALAR"
    }
  ],
  "asset": {
    "extras": {
      "author": "Razeen Bhai (https://sketchfab.com/razeenbaig10)",
      "license": "CC-BY-4.0 (http://creativecommons.org/licenses/by/4.0/)",
      "source": "https://sketchfab.com/3d-models/chevy-blazer-old-model-low-poly-47292db614924797a45320781b05d0b5",
      "title": "Chevy Blazer Old Model Low Poly"
    },
    "generator": "Sketchfab-14.32.0",
    "version": "2.0"
  },
  "bufferViews": [
    {
      "buffer": 0,
      "byteLength": 301608,
      "name": "floatBufferViews",
      "target": 34963
    },
    {
      "buffer": 0,
      "byteLength": 492216,
      "byteOffset": 301608,
      "byteStride": 8,
      "name": "floatBufferViews",
      "target": 34962
    },
    {
      "buffer": 0,
      "byteLength": 925320,
      "byteOffset": 793824,
      "byteStride": 12,
      "name": "floatBufferViews",
      "target": 34962
    },
    {
      "buffer": 0,
      "byteLength": 367552,
      "byteOffset": 1719144,
      "byteStride": 16,
      "name": "floatBufferViews",
      "target": 34962
    }
  ],
  "buffers": [
    {
      "byteLength": 2086696,
      "uri": "scene.bin"
    }
  ],
  "images": [
    {
      "uri": "textures/body_baseColor.jpeg"
    },
    {
      "uri": "textures/DefaultMaterial_baseColor.jpeg"
    },
    {
      "uri": "textures/DefaultMaterial_normal.png"
    }
  ],
  "materials": [
    {
      "doubleSided": true,
      "name": "body",
      "pbrMetallicRoughness": {
        "baseColorTexture": {
          "index": 0
        },
        "metallicFactor": 0.0
      }
    },
    {
      "doubleSided": true,
      "name": "DefaultMaterial",
      "normalTexture": {
        "index": 2
      },
      "pbrMetallicRoughness": {
        "baseColorTexture": {
          "index": 1
        },
        "metallicFactor": 0.0,
        "roughnessFactor": 0.8211145618000169
      }
    }
  ],
  "meshes": [
    {
      "name": "Cube_body_0",
      "primitives": [
        {
          "attributes": {
            "NORMAL": 1,
            "POSITION": 0,
            "TEXCOORD_0": 2
          },
          "indices": 3,
          "material": 0,
          "mode": 4
        }
      ]
    },
    {
      "name": "defaultMaterial_DefaultMaterial_0",
      "primitives": [
        {
          "attributes": {
            "NORMAL": 5,
            "POSITION": 4,
            "TANGENT": 6,
            "TEXCOORD_0": 7,
            "TEXCOORD_1": 8
          },
          "indices": 9,
          "material": 1,
          "mode": 4
        }
      ]
    },
    {
      "name": "Circle_DefaultMaterial_0",
      "primitives": [
        {
          "attributes": {
            "NORMAL": 11,
            "POSITION": 10,
            "TANGENT": 12,
            "TEXCOORD_0": 13,
            "TEXCOORD_1": 14
          },
          "indices": 15,
          "material": 1,
          "mode": 4
        }
      ]
    }
  ],
  "nodes": [
    {
      "children": [
        1
      ],
      "matrix": [
        1.0,
        0.0,
        0.0,
        0.0,
        0.0,
        2.220446049250313e-16,
        -1.0,
        0.0,
        0.0,
        1.0,
        2.220446049250313e-16,
        0.0,
        0.0,
        0.0,
        0.0,
        1.0
      ],
      "name": "Sketchfab_model"
    },
    {
      "children": [
        2
      ],
      "matrix": [
        0.009999999776482582,
        0.0,
        0.0,
        0.0,
        0.0,
        0.0,
        0.009999999776482582,
        0.0,
        0.0,
        -0.009999999776482582,
        0.0,
        0.0,
        0.0,
        0.0,
        0.0,
        1.0
      ],
      "name": "ce7173e0d79349e2a0f0013c1da17fc9.fbx"
    },
    {
      "children": [
        3,
        5,
        10
      ],
      "name": "RootNode"
    },
    {
      "children": [
        4
      ],
      "matrix": [
        100.0,
        0.0,
        0.0,
        0.0,
        0.0,
        -1.629206793918314e-05,
        -99.99999999999868,
        0.0,
        0.0,
        99.99999999999868,
        -1.629206793918314e-05,
        0.0,
        0.0,
        -6.2685956954956055,
        0.0,
        1.0
      ],
      "name": "Cube"
    },
    {
      "mesh": 0,
      "name": "Cube_body_0"
    },
    {
      "children": [
        6
      ],
      "matrix": [
        100.0,
        0.0,
        0.0,
        0.0,
        0.0,
        -100.00001525878795,
        1.5099582213796756e-05,
        0.0,
        0.0,
        -1.5099582213796756e-05,
        -100.00001525878795,
        0.0,
        0.0,
        0.0,
        0.0,
        1.0
      ],
      "name": "Sketchfab_model"
    },
    {
      "children": [
        7
      ],
      "matrix": [
        1.0,
        0.0,
        0.0,
        0.0,
        0.0,
        -1.6292069881348986e-07,
        1.0000001192092762,
        0.0,
        0.0,
        -1.0000001192092762,
        -1.6292069881348986e-07,
        0.0,
        0.0,
        0.0,
        0.0,
        1.0
      ],
      "name": "Collada visual scene group"
    },
    {
      "children": [
        8
      ],
      "matrix": [
        1.0,
        0.0,
        0.0,
        0.0,
        0.0,
        1.0,
        1.6543612251060557e-24,
        0.0,
        0.0,
        -1.6543612251060557e-24,
        1.0,
        0.0,
        0.0,
        0.0,
        0.0,
        1.0
      ],
      "name": "wheel"
    },
    {
      "children": [
        9
      ],
      "matrix": [
        1.0,
        0.0,
        0.0,
        0.0,
        0.0,
        1.0,
        1.6543612251060557e-24,
        0.0,
        0.0,
        -1.6543612251060557e-24,
        1.0,
        0.0,
        0.0,
        0.0,
        -0.07779539376497269,
        1.0
      ],
      "name": "defaultMaterial"
    },
    {
      "mesh": 1,
      "name": "defaultMaterial_DefaultMaterial_0"
    },
    {
      "children": [
        11
      ],
      "matrix": [
        194.97718811035156,
        0.0,
        0.0,
        0.0,
        0.0,
        -3.1765815952847394e-05,
        -194.97718811034898,
        0.0,
        0.0,
        194.97718811034898,
        -3.1765815952847394e-05,
        0.0,
        0.0,
        -1.6201982498168945,
        19.256397247314453,
        1.0
      ],
      "name": "Circle"
    },
    {
      "mesh": 2,
      "name": "Circle_DefaultMaterial_0"
    }
  ],
  "samplers": [
    {
      "magFilter": 9729,
      "minFilter": 9987,
      "wrapS": 10497,
      "wrapT": 10497
    }
  ],
  "scene": 0,
  "scenes": [
    {
      "name": "Sketchfab_Scene",
      "nodes": [
        0
      ]
    }
  ],
  "textures": [
    {
      "sampler": 0,
      "source": 0
    },
    {
      "sampler": 0,
      "source": 1
    },
    {
      "sampler": 0,
      "source": 2
    }
  ]
}
